# Exported by ZModeler 2.2.4 (Build 981) with WavefrontOBJ filter (Build 45)
# 

mtllib arrow.mtl

v -0.2 0.0499996 0.15
v 5.40429e-008 0.0499996 -0.25
v 4.53007e-008 -0.0499996 -0.25
v -0.2 -0.0499996 0.15
v 1.90738e-008 0.0499996 -0.05
v 5.40429e-008 0.0499996 -0.25
v -0.2 0.0499996 0.15
v -0.1 0.0499996 0.15
v 4.53007e-008 -0.0499996 -0.25
v 5.40429e-008 0.0499996 -0.25
v 1.90738e-008 0.0499996 -0.05
v 1.03316e-008 -0.0499996 -0.05
v 1.03316e-008 -0.0499996 -0.05
v 1.90738e-008 0.0499996 -0.05
v -0.1 0.0499996 0.15
v -0.1 -0.0499996 0.15
v -0.2 -0.0499996 0.15
v 4.53007e-008 -0.0499996 -0.25
v 1.03316e-008 -0.0499996 -0.05
v -0.1 -0.0499996 0.15
v -0.1 0.0499996 0.15
v -0.2 0.0499996 0.15
v -0.2 -0.0499996 0.15
v -0.1 -0.0499996 0.15
v 0.0999999 0.0499996 0.15
v 4.29157e-008 0.0499996 -0.05
v 3.41735e-008 -0.0499996 -0.05
v 0.0999999 -0.0499996 0.15
v 1.73252e-007 0.0499996 -0.25
v 4.29157e-008 0.0499996 -0.05
v 0.0999999 0.0499996 0.15
v 0.2 0.0499996 0.15
v 3.41735e-008 -0.0499996 -0.05
v 4.29157e-008 0.0499996 -0.05
v 1.73252e-007 0.0499996 -0.25
v 1.6451e-007 -0.0499996 -0.25
v 1.6451e-007 -0.0499996 -0.25
v 1.73252e-007 0.0499996 -0.25
v 0.2 0.0499996 0.15
v 0.2 -0.0499996 0.15
v 0.0999999 -0.0499996 0.15
v 3.41735e-008 -0.0499996 -0.05
v 1.6451e-007 -0.0499996 -0.25
v 0.2 -0.0499996 0.15
v 0.2 0.0499996 0.15
v 0.0999999 0.0499996 0.15
v 0.0999999 -0.0499996 0.15
v 0.2 -0.0499996 0.15


vn -0.894431 5.86452e-008 -0.447216
vn -0.894431 5.86452e-008 -0.447216
vn -0.894431 5.86452e-008 -0.447216
vn -0.894431 5.86452e-008 -0.447216
vn 8.74234e-008 1.00001 -4.37117e-008
vn 8.74234e-008 1.00001 -4.37117e-008
vn 8.74234e-008 1.00001 -4.37117e-008
vn 8.74234e-008 1.00001 -4.37117e-008
vn 1.00001 -8.74234e-008 1.74847e-007
vn 1.00001 -8.74234e-008 1.74847e-007
vn 1.00001 -8.74234e-008 1.74847e-007
vn 1.00001 -8.74234e-008 1.74847e-007
vn 0.894431 -5.86452e-008 0.447216
vn 0.894431 -5.86452e-008 0.447216
vn 0.894431 -5.86452e-008 0.447216
vn 0.894431 -5.86452e-008 0.447216
vn -8.74234e-008 -1.00001 4.37117e-008
vn -8.74234e-008 -1.00001 4.37117e-008
vn -8.74234e-008 -1.00001 4.37117e-008
vn -8.74234e-008 -1.00001 4.37117e-008
vn -1.74847e-007 4.37117e-008 1.00001
vn -1.74847e-007 4.37117e-008 1.00001
vn -1.74847e-007 4.37117e-008 1.00001
vn -1.74847e-007 4.37117e-008 1.00001
vn -0.894431 9.7742e-008 0.447215
vn -0.894431 9.7742e-008 0.447215
vn -0.894431 9.7742e-008 0.447215
vn -0.894431 9.7742e-008 0.447215
vn 8.74234e-008 1.00001 -4.37117e-008
vn 8.74234e-008 1.00001 -4.37117e-008
vn 8.74234e-008 1.00001 -4.37117e-008
vn 8.74234e-008 1.00001 -4.37117e-008
vn -1.00001 8.74234e-008 -6.51687e-007
vn -1.00001 8.74234e-008 -6.51687e-007
vn -1.00001 8.74234e-008 -6.51687e-007
vn -1.00001 8.74234e-008 -6.51687e-007
vn 0.894431 -9.7742e-008 -0.447215
vn 0.894431 -9.7742e-008 -0.447215
vn 0.894431 -9.7742e-008 -0.447215
vn 0.894431 -9.7742e-008 -0.447215
vn -8.74228e-008 -1 4.37114e-008
vn -8.74228e-008 -1 4.37114e-008
vn -8.74228e-008 -1 4.37114e-008
vn -8.74228e-008 -1 4.37114e-008
vn -1.74847e-007 4.37117e-008 1.00001
vn -1.74847e-007 4.37117e-008 1.00001
vn -1.74847e-007 4.37117e-008 1.00001
vn -1.74847e-007 4.37117e-008 1.00001


vt 0 1
vt 1 1
vt 1 0
vt 0 0
vt 0 1
vt 1 1
vt 1 0
vt 0 0
vt 0 1
vt 1 1
vt 1 0
vt 0 0
vt 0 1
vt 1 1
vt 1 0
vt 0 0
vt 0 1
vt 1 1
vt 1 0
vt 0 0
vt 1 0
vt 1 1
vt 0 1
vt 0 0
vt 0 1
vt 1 1
vt 1 0
vt 0 0
vt 0 1
vt 1 1
vt 1 0
vt 0 0
vt 0 1
vt 1 1
vt 1 0
vt 0 0
vt 0 1
vt 1 1
vt 1 0
vt 0 0
vt 0 1
vt 1 1
vt 1 0
vt 0 0
vt 1 0
vt 1 1
vt 0 1
vt 0 0


usemtl Default_Material

f 1/1/1 2/2/2 3/3/3 4/4/4
f 5/5/5 6/6/6 7/7/7 8/8/8
f 9/9/9 10/10/10 11/11/11 12/12/12
f 13/13/13 14/14/14 15/15/15 16/16/16
f 17/17/17 18/18/18 19/19/19 20/20/20
f 21/21/21 22/22/22 23/23/23 24/24/24
f 25/25/25 26/26/26 27/27/27 28/28/28
f 29/29/29 30/30/30 31/31/31 32/32/32
f 33/33/33 34/34/34 35/35/35 36/36/36
f 37/37/37 38/38/38 39/39/39 40/40/40
f 41/41/41 42/42/42 43/43/43 44/44/44
f 45/45/45 46/46/46 47/47/47 48/48/48
